<svg width="33" height="32" viewBox="0 0 33 32" fill="none" xmlns="http://www.w3.org/2000/svg">
<path d="M14.832 13.1807V14.4219C14.832 14.7711 15.1424 15.0814 15.4915 15.0814C15.8406 15.0814 16.151 14.7711 16.151 14.4219V13.1807C16.151 12.8316 15.8406 12.5212 15.4915 12.5212C15.1035 12.5212 14.832 12.7927 14.832 13.1807Z" fill="#FF9C1C"/>
<path d="M14.0685 13.1807C14.0685 12.405 14.7279 11.7455 15.5037 11.7455C16.2794 11.7455 16.9389 12.405 16.9389 13.1807V13.3746C19.8867 13.2582 23.882 12.4825 26.9073 11.7068L26.9072 7.51769C26.9072 6.78073 26.3253 6.19892 25.5884 6.19892L19.0718 6.19874V5.61694C19.0718 4.49214 18.1797 3.59998 17.0549 3.59998H13.913C12.7882 3.59998 11.8961 4.49214 11.8961 5.61694V6.19874H5.41838C4.68142 6.19874 4.09961 6.78068 4.09961 7.51769V11.7068C7.12516 12.4825 11.12 13.2195 14.0681 13.3747L14.0685 13.1807ZM12.7108 5.61683C12.7108 4.91864 13.2538 4.3756 13.952 4.3756H17.0938C17.792 4.3756 18.3351 4.91864 18.3351 5.61683V6.19864H12.7109L12.7108 5.61683Z" fill="black"/>
<path d="M21.4377 14.4996H26.9069V12.5214C23.8814 13.2971 19.8866 14.0341 16.9385 14.1505V14.4219C16.9385 15.2364 16.279 15.8571 15.5033 15.8571C14.7275 15.8571 14.0681 15.1977 14.0681 14.4219V14.1505C11.1204 13.9953 7.12498 13.2583 4.09961 12.4827V23.0331C4.09961 23.77 4.68142 24.3518 5.41838 24.3518H17.1711V18.5338C17.1711 18.2234 17.3262 17.8743 17.5589 17.6804L20.662 14.7713C20.8561 14.6161 21.1275 14.4998 21.4379 14.4998L21.4377 14.4996Z" fill="black"/>
<path d="M28.1483 15.2754H21.826V18.5724C21.826 18.805 21.6708 18.9602 21.4381 18.9602H17.9473V27.6487C17.9473 28.0753 18.2964 28.4244 18.723 28.4244H28.1484C28.575 28.4244 28.9241 28.0753 28.9241 27.6487V16.0121C28.9241 15.6242 28.575 15.2751 28.1484 15.2751L28.1483 15.2754ZM26.4027 26.1751H20.4681C20.2354 26.1751 20.0802 26.0199 20.0802 25.7872C20.0802 25.5545 20.2354 25.3993 20.4681 25.3993H26.4416C26.6743 25.3993 26.8295 25.5545 26.8295 25.7872C26.8293 26.0199 26.6353 26.1751 26.4027 26.1751H26.4027ZM26.4027 24.1969H20.4681C20.2354 24.1969 20.0802 24.0417 20.0802 23.809C20.0802 23.5763 20.2354 23.4211 20.4681 23.4211H26.4416C26.6743 23.4211 26.8295 23.5763 26.8295 23.809C26.8293 24.0417 26.6353 24.1969 26.4027 24.1969H26.4027ZM26.4027 22.2187H20.4681C20.2354 22.2187 20.0802 22.0635 20.0802 21.8308C20.0802 21.5981 20.2354 21.443 20.4681 21.443H26.4416C26.6743 21.443 26.8295 21.5981 26.8295 21.8308C26.8293 22.0635 26.6353 22.2187 26.4027 22.2187H26.4027ZM26.4027 20.2405H20.4681C20.2354 20.2405 20.0802 20.0853 20.0802 19.8526C20.0802 19.6199 20.2354 19.4648 20.4681 19.4648H26.4416C26.6743 19.4648 26.8295 19.6199 26.8295 19.8526C26.8293 20.0853 26.6353 20.2405 26.4027 20.2405H26.4027ZM26.4027 18.2623H22.7567C22.524 18.2623 22.3688 18.1071 22.3688 17.8744C22.3688 17.6417 22.524 17.4866 22.7567 17.4866H26.4027C26.6354 17.4866 26.7906 17.6417 26.7906 17.8744C26.7906 18.1071 26.6354 18.2623 26.4027 18.2623Z" fill="black"/>
<path d="M21.05 18.1458V15.4694L18.1797 18.1458H21.05Z" fill="#FF9C1C"/>
</svg>
