<svg width="33" height="32" viewBox="0 0 33 32" fill="none" xmlns="http://www.w3.org/2000/svg">
<path d="M17.0191 24.22C17.0191 24.5122 16.7822 24.7491 16.49 24.7491C16.1979 24.7491 15.9609 24.5121 15.9609 24.22C15.9609 23.9279 16.1979 23.6909 16.49 23.6909C16.7822 23.6909 17.0191 23.9279 17.0191 24.22Z" fill="#FF9C1C"/>
<path d="M12.8438 7.36758C13.1266 8.17293 14.0887 10.2406 16.4898 10.2406C18.8638 10.2406 19.8423 8.17243 20.133 7.36617C19.487 7.04188 17.7682 6.24438 16.4898 6.24438C15.2086 6.24438 13.4891 7.04297 12.8438 7.36758Z" fill="#FF9C1C"/>
<path d="M17.0191 15.8251C17.0191 16.1173 16.7822 16.3542 16.49 16.3542C16.1979 16.3542 15.9609 16.1173 15.9609 15.8251C15.9609 15.5328 16.1979 15.296 16.49 15.296C16.7822 15.296 17.0191 15.5328 17.0191 15.8251Z" fill="#FF9C1C"/>
<path d="M17.0191 20.0221C17.0191 20.3143 16.7822 20.5512 16.49 20.5512C16.1979 20.5512 15.9609 20.3143 15.9609 20.0221C15.9609 19.73 16.1979 19.493 16.49 19.493C16.7822 19.493 17.0191 19.73 17.0191 20.0221Z" fill="#FF9C1C"/>
<path d="M19.1083 15.1541L17.6523 13.6849V26.6815H25.7538V11.2388L22.8328 10.1663L19.1083 15.1541Z" fill="black"/>
<path d="M10.1437 10.1666L7.22266 11.2391V26.6819H15.3241V13.6853L13.8686 15.1544L10.1437 10.1666Z" fill="black"/>
<path d="M22.9286 9.24773L21.0031 6.8438L20.8906 6.75202C20.7876 6.69505 18.3497 5.34863 16.4892 5.34863C14.6636 5.34863 12.346 6.60861 12.0879 6.75238L10.0506 9.24756L6.32812 10.6135V26.682H6.94152V11.0423L10.2449 9.82978L13.8999 14.7235L15.6076 12.9996V26.6823H17.371V12.9996L19.0785 14.7235L22.7331 9.82978L26.0369 11.0423V26.6825H26.6503V10.6139L22.9286 9.24773ZM16.4893 25.0315C16.0418 25.0315 15.6781 24.6678 15.6781 24.2203C15.6781 23.7731 16.0418 23.409 16.4893 23.409C16.9365 23.409 17.3007 23.7729 17.3007 24.2203C17.3007 24.6674 16.9365 25.0315 16.4893 25.0315ZM16.4893 20.8337C16.0418 20.8337 15.6781 20.4699 15.6781 20.0228C15.6781 19.5753 16.0418 19.2113 16.4893 19.2113C16.9365 19.2113 17.3007 19.5753 17.3007 20.0228C17.3007 20.4699 16.9365 20.8337 16.4893 20.8337ZM16.4893 16.6362C16.0418 16.6362 15.6781 16.2722 15.6781 15.8247C15.6781 15.3772 16.0418 15.0135 16.4893 15.0135C16.9365 15.0135 17.3007 15.3772 17.3007 15.8247C17.3007 16.2722 16.9365 16.6362 16.4893 16.6362ZM20.4397 7.34108C20.1922 8.08787 19.1747 10.523 16.4893 10.523C13.7738 10.523 12.777 8.08732 12.5363 7.34072L12.4995 7.22679L12.6059 7.17179C13.3118 6.80804 15.1032 5.96214 16.4893 5.96214C17.8727 5.96214 19.6645 6.80749 20.3705 7.17087L20.4777 7.22605L20.4397 7.34108Z" fill="black"/>
</svg>
