<svg width="33" height="32" viewBox="0 0 33 32" fill="none" xmlns="http://www.w3.org/2000/svg">
<path d="M10.043 4.18286V5.65984H19.7906L21.8092 7.97358L23.9262 10.5336V25.3523H25.3538V4.18295L10.043 4.18286Z" fill="black"/>
<path d="M19.3488 6.64429H18.9551V10.5828H22.6965L21.0719 8.61357L19.3488 6.64429Z" fill="#FF9C1C"/>
<path d="M17.9696 6.64429H7.63086V27.8137H22.9909V11.5677H17.9696V6.64429ZM10.0926 9.10591H16.9849V10.0906H10.0926V9.10591ZM10.0926 11.5675H16.9849V12.5522H10.0926V11.5675ZM20.4309 22.3982H10.0926V21.4135H20.4309V22.3982ZM20.4309 19.9365H10.0926V18.9519H20.4309V19.9365ZM20.4309 17.4751H10.0926V16.4905H20.4309V17.4751ZM20.4309 14.0288V15.0135H10.0926V14.0288H20.4309Z" fill="black"/>
</svg>
