<svg width="33" height="32" viewBox="0 0 33 32" fill="none" xmlns="http://www.w3.org/2000/svg">
<path d="M10.9004 24H11.7004V25.6H10.9004V24Z" fill="#FF9C1C"/>
<path d="M6.09961 17.6001H15.6996V23.2001H6.09961V17.6001Z" fill="black"/>
<path d="M12.8998 26.4H9.69977C9.45174 26.4004 9.20976 26.4773 9.00711 26.6206C8.80461 26.7638 8.6514 26.9663 8.56836 27.2H14.0312C13.9482 26.9663 13.795 26.7638 13.5925 26.6206C13.3898 26.4773 13.1478 26.4004 12.8998 26.4Z" fill="#FF9C1C"/>
<path d="M8.5 10.4H12.5V11.2H8.5V10.4Z" fill="black"/>
<path d="M12.5 25.6001H12.9C13.333 25.5997 13.7543 25.7405 14.1 26.0012V24.0001H12.5V25.6001Z" fill="#FF9C1C"/>
<path d="M7.29947 10.4H7.69947V10C7.69947 9.89398 7.74161 9.79219 7.81661 9.71719C7.89161 9.64219 7.9934 9.60005 8.09947 9.60005H12.8995C13.0055 9.60005 13.1073 9.64219 13.1823 9.71719C13.2573 9.79219 13.2995 9.89398 13.2995 10V10.4H14.0995V10C14.0995 9.89398 14.1416 9.79219 14.2166 9.71719C14.2916 9.64219 14.3934 9.60005 14.4995 9.60005H14.8995V6.00005C14.8991 5.56701 15.0398 5.14574 15.3005 4.80005H7.29962C6.98141 4.80041 6.6764 4.92701 6.45139 5.15183C6.22657 5.37684 6.09997 5.68185 6.09961 6.00006V9.20006C6.09997 9.51828 6.22657 9.82329 6.45139 10.0483C6.6764 10.2731 6.98141 10.3997 7.29962 10.4001L7.29947 10.4ZM10.4995 6.00005C10.6613 6.00005 10.8071 6.09755 10.8689 6.24701C10.9309 6.39647 10.8968 6.56844 10.7823 6.68291C10.6679 6.79737 10.4959 6.83148 10.3464 6.76951C10.197 6.70772 10.0995 6.56183 10.0995 6.40005C10.0995 6.17916 10.2786 6.00005 10.4995 6.00005ZM6.89947 7.60005H14.0995V8.40005H6.89947V7.60005Z" fill="black"/>
<path d="M14.9004 14.4H22.1004V10.4H14.9004V14.4ZM20.5004 11.2H21.3004V13.6H20.5004V11.2Z" fill="black"/>
<path d="M19.6992 4.80005H16.8992C16.581 4.80041 16.276 4.92701 16.051 5.15183C15.8262 5.37684 15.6996 5.68185 15.6992 6.00006V9.60006H19.6992L19.6992 4.80005Z" fill="#FF9C1C"/>
<path d="M16.5 17.6001H17.3V23.2001H16.5V17.6001Z" fill="#FF9C1C"/>
<path d="M22.9004 10.4H27.7004V27.2H22.9004V10.4Z" fill="black"/>
<path d="M14.9004 16.8001H17.7004C17.8065 16.8001 17.9082 16.8422 17.9832 16.9172C18.0582 16.9922 18.1004 17.094 18.1004 17.2001V23.6001C18.1004 23.7061 18.0582 23.8079 17.9832 23.8829C17.9082 23.9579 17.8065 24.0001 17.7004 24.0001H14.9004V27.2001H22.1004V15.2001H14.9004V16.8001ZM20.5004 16.8001H21.3004V19.2001H20.5004V16.8001Z" fill="black"/>
</svg>
