<svg width="33" height="32" viewBox="0 0 33 32" fill="none" xmlns="http://www.w3.org/2000/svg">
<path d="M14.8883 12.3886C14.9944 12.3886 15.0961 12.3464 15.1711 12.2714C15.2461 12.1964 15.2883 12.0946 15.2883 11.9886V10.7886H14.4883V11.9886C14.4883 12.0946 14.5304 12.1964 14.6054 12.2714C14.6804 12.3464 14.7822 12.3886 14.8883 12.3886Z" fill="#FF9C1C"/>
<path d="M14.8883 7.58853C14.9944 7.58853 15.0961 7.54638 15.1711 7.47138C15.2461 7.39638 15.2883 7.2946 15.2883 7.18853V6.38853C15.2883 6.16763 15.1092 5.98853 14.8883 5.98853C14.6674 5.98853 14.4883 6.16763 14.4883 6.38853V7.18853C14.4883 7.2946 14.5304 7.39638 14.6054 7.47138C14.6804 7.54638 14.7822 7.58853 14.8883 7.58853Z" fill="#FF9C1C"/>
<path d="M24.7562 11.9886C24.6008 11.6327 24.3453 11.3296 24.0206 11.1166C23.696 10.9036 23.3164 10.7895 22.9282 10.7886H22.4882V13.5886C22.4882 13.9068 22.3617 14.2122 22.1367 14.4371C21.9117 14.6621 21.6064 14.7886 21.2882 14.7886H11.6882C11.37 14.7886 11.0646 14.6621 10.8396 14.4371C10.6147 14.2121 10.4882 13.9067 10.4882 13.5886V10.7886H10.0482C9.65999 10.7895 9.28034 10.9036 8.95573 11.1166C8.63108 11.3296 8.37557 11.6327 8.22018 11.9886L5.9043 17.1886H27.0723L24.7562 11.9886Z" fill="black"/>
<path d="M18.0895 12.3886C18.1955 12.3886 18.2973 12.3464 18.3723 12.2714C18.4473 12.1964 18.4895 12.0946 18.4895 11.9886V10.7886H17.6895V11.9886C17.6895 12.0946 17.7316 12.1964 17.8066 12.2714C17.8816 12.3464 17.9834 12.3886 18.0895 12.3886Z" fill="#FF9C1C"/>
<path d="M11.6891 13.9886H21.2891C21.3951 13.9886 21.4969 13.9464 21.5719 13.8714C21.6469 13.7964 21.6891 13.6946 21.6891 13.5886V4.78855C21.6891 4.68248 21.6469 4.58069 21.5719 4.50569C21.4969 4.43069 21.3951 4.38855 21.2891 4.38855H11.6891C11.4682 4.38855 11.2891 4.56766 11.2891 4.78855V13.5886C11.2891 13.6946 11.3312 13.7964 11.4062 13.8714C11.4812 13.9464 11.583 13.9886 11.6891 13.9886ZM16.8891 10.3886C16.8891 10.1677 17.0682 9.98855 17.2891 9.98855H17.6891V8.3166C17.4557 8.2341 17.2535 8.08142 17.1103 7.87945C16.9671 7.67749 16.8898 7.43606 16.8891 7.18857V5.18857H17.6891V7.18857C17.6891 7.40946 17.8682 7.58857 18.0891 7.58857C18.31 7.58857 18.4891 7.40946 18.4891 7.18857V5.18857H19.2891V7.18857C19.2884 7.43607 19.211 7.67749 19.0678 7.87945C18.9246 8.08142 18.7225 8.2341 18.4891 8.3166V9.98855H18.8891C18.9952 9.98855 19.0969 10.0307 19.1719 10.1057C19.2469 10.1807 19.2891 10.2825 19.2891 10.3886V11.9886C19.2891 12.4173 19.0603 12.8134 18.6891 13.0278C18.3178 13.2421 17.8603 13.2421 17.4891 13.0278C17.1178 12.8134 16.8891 12.4173 16.8891 11.9886L16.8891 10.3886ZM13.6891 10.3886C13.6891 10.1677 13.8682 9.98855 14.0891 9.98855H14.4891V8.3166C14.2557 8.2341 14.0535 8.08142 13.9103 7.87945C13.7671 7.67749 13.6898 7.43606 13.6891 7.18857V6.38857C13.6891 5.95982 13.9178 5.56375 14.2891 5.3493C14.6603 5.13502 15.1178 5.13502 15.4891 5.3493C15.8603 5.56377 16.0891 5.95982 16.0891 6.38857V7.18857C16.0884 7.43607 16.011 7.67749 15.8678 7.87945C15.7246 8.08142 15.5225 8.2341 15.2891 8.3166V9.98855H15.6891C15.7952 9.98855 15.8969 10.0307 15.9719 10.1057C16.0469 10.1807 16.0891 10.2825 16.0891 10.3886V11.9886C16.0891 12.4173 15.8603 12.8134 15.4891 13.0278C15.1178 13.2421 14.6603 13.2421 14.2891 13.0278C13.9178 12.8134 13.6891 12.4173 13.6891 11.9886L13.6891 10.3886Z" fill="#FF9C1C"/>
<path d="M12.4883 17.9885H20.4883V20.3885H12.4883V17.9885Z" fill="black"/>
<path d="M4.88867 17.9885H11.6887V20.3885H4.88867V17.9885Z" fill="black"/>
<path d="M8.22018 26.3886C8.37554 26.7445 8.63108 27.0475 8.95572 27.2606C9.28037 27.4736 9.66 27.5877 10.0482 27.5886H22.9282C23.3164 27.5877 23.6961 27.4736 24.0207 27.2606C24.3453 27.0475 24.6008 26.7445 24.7562 26.3886L27.0723 21.1886H5.9043L8.22018 26.3886Z" fill="black"/>
<path d="M21.2891 17.9885H28.0891V20.3885H21.2891V17.9885Z" fill="black"/>
</svg>
