<svg width="13" height="22" viewBox="0 0 13 22" fill="none" xmlns="http://www.w3.org/2000/svg">
<path d="M10.766 6.9311V5.68201H2.233V6.9311C0.991404 7.37164 0.0996094 8.55771 0.0996094 9.9488V18.4823C0.0996094 20.2466 1.53531 21.6823 3.29961 21.6823H9.69961C11.4639 21.6823 12.8996 20.2466 12.8996 18.4823V9.9488C12.8996 8.55771 12.0078 7.37165 10.7662 6.9311H10.766ZM9.69943 15.2822H7.56603V17.4156H5.43264V15.2822H3.29943V13.1488H5.43282V11.0154H7.56622V13.1488H9.69961L9.69943 15.2822Z" fill="black"/>
<path d="M0.0996094 0.348633V2.48184H2.233V3.54863H10.766V2.48184H12.8994V0.348633H0.0996094Z" fill="#FF9C1C"/>
</svg>
