<svg width="33" height="32" viewBox="0 0 33 32" fill="none" xmlns="http://www.w3.org/2000/svg">
<path d="M17 13C15.6267 13 14.5 14.1267 14.5 15.5C14.5 16.8733 15.6267 18 17 18C18.3733 18 19.5 16.8733 19.5 15.5C19.5 14.1267 18.3733 13 17 13Z" fill="#FF9C1C"/>
<path d="M10 13C8.62668 13 7.5 14.1267 7.5 15.5C7.5 16.8733 8.62668 18 10 18C11.3733 18 12.5 16.8733 12.5 15.5C12.5 14.1267 11.3733 13 10 13Z" fill="black"/>
<path d="M24 13C22.6267 13 21.5 14.1267 21.5 15.5C21.5 16.8733 22.6267 18 24 18C25.3733 18 26.5 16.8733 26.5 15.5C26.5 14.1267 25.3733 13 24 13Z" fill="black"/>
</svg>
