<svg width="33" height="32" viewBox="0 0 33 32" fill="none" xmlns="http://www.w3.org/2000/svg">
<path d="M25.5814 22.0356C24.9289 21.3831 24.2764 20.7305 23.6239 20.0781L21.8964 18.3506L21.8939 18.3481C21.8889 18.3431 21.8864 18.3406 21.8814 18.3356C21.8689 18.3231 21.8564 18.3131 21.8414 18.3006L21.8389 18.2981C21.5164 18.0356 21.0739 18.0506 20.7664 18.3406C20.7089 18.3956 20.6539 18.4531 20.5989 18.5081C20.4039 18.7031 20.2089 18.8981 20.0139 19.0931L19.4514 18.5306C19.3089 18.3881 19.0639 18.3881 18.9214 18.5306L17.8364 19.6155C17.6939 19.758 17.6939 20.003 17.8364 20.1456L18.3989 20.7081L17.8264 21.2806C17.7664 21.3406 17.7064 21.3981 17.6489 21.4581C17.3864 21.7331 17.3264 22.158 17.5589 22.4756C17.6764 22.6381 17.8364 22.7731 17.9789 22.9131C18.6264 23.5606 19.2739 24.2081 19.9214 24.8556C20.4789 25.413 21.0339 25.9681 21.5914 26.5255C21.6239 26.558 21.6564 26.5905 21.6889 26.623C21.9989 26.928 22.3889 27.1056 22.8189 27.1555C23.2164 27.203 23.6414 27.103 23.9789 26.893C24.1464 26.7905 24.2864 26.658 24.4239 26.5205C24.7464 26.2005 25.0664 25.878 25.3889 25.558C25.6589 25.288 25.9739 25.023 26.1864 24.7005C26.6539 23.988 26.5414 23.018 25.9614 22.408C25.8339 22.2805 25.7064 22.158 25.5814 22.0356Z" fill="#FF9C1C"/>
<path d="M27.2905 9.83535C27.2655 9.66535 27.2405 9.48536 27.1855 9.32536C27.1055 9.09037 26.8755 8.92036 26.623 8.94036C26.323 8.96286 26.113 9.24536 25.913 9.44537C25.323 10.0354 24.7305 10.6279 24.1405 11.2178L23.8855 11.4753C23.7855 11.5753 23.6655 11.6878 23.5855 11.7453C23.273 11.9703 23.0055 12.0853 22.6281 12.1553C22.6156 12.1578 22.5431 12.1678 22.5356 12.1703C22.5006 12.1753 22.4656 12.1778 22.4331 12.1803C22.3331 12.1878 22.2331 12.1878 22.1331 12.1828C21.9656 12.1753 21.8906 12.1653 21.7081 12.1178C21.6356 12.1003 21.5631 12.0778 21.4906 12.0528C21.4531 12.0403 21.4181 12.0253 21.3806 12.0128C21.3806 12.0128 21.3831 12.0128 21.3831 12.0153C21.3831 12.0153 21.3806 12.0153 21.3781 12.0128H21.3806C21.3556 12.0028 21.3331 11.9903 21.3081 11.9803C21.1656 11.9103 21.0281 11.8303 20.9006 11.7353C20.8906 11.7278 20.8806 11.7203 20.8706 11.7128C20.8656 11.7103 20.8631 11.7053 20.8581 11.7003C20.8331 11.6778 20.8056 11.6578 20.7806 11.6353C20.7181 11.5803 20.6581 11.5203 20.6006 11.4578C20.5731 11.4278 20.5481 11.4003 20.5231 11.3703C20.5131 11.3603 20.4881 11.3278 20.4831 11.3228C20.4356 11.2603 20.3931 11.1978 20.3531 11.1303C20.3156 11.0678 20.2781 11.0028 20.2456 10.9378C20.2281 10.9028 20.2106 10.8653 20.1931 10.8303C20.1931 10.8303 20.1931 10.8278 20.1906 10.8278C20.1906 10.8303 20.1931 10.8328 20.1931 10.8353C20.1906 10.8303 20.1856 10.8203 20.1856 10.8153C20.1856 10.8178 20.1881 10.8203 20.1906 10.8253C20.1831 10.8028 20.1731 10.7828 20.1656 10.7603C20.1081 10.6078 20.0656 10.4503 20.0406 10.2878C20.0381 10.2778 20.0331 10.2428 20.0331 10.2353V10.2328C20.0281 10.1978 20.0256 10.1628 20.0231 10.1303C20.0156 10.0303 20.0156 9.93034 20.0206 9.83034C20.0231 9.78284 20.0256 9.73784 20.0306 9.69284C20.0331 9.67284 20.0331 9.66534 20.0331 9.66284C20.0331 9.66034 20.0356 9.65284 20.0381 9.63534C20.0556 9.53784 20.0756 9.44034 20.1031 9.34534C20.2231 8.92284 20.4481 8.59782 20.7681 8.27782C21.0056 8.04032 21.2431 7.8028 21.4831 7.5628C22.0106 7.0353 22.5406 6.50529 23.0681 5.9778C23.2531 5.79279 23.3331 5.5228 23.2006 5.2828C23.0856 5.0728 22.8856 5.0103 22.6656 4.9653C22.4731 4.9253 22.2781 4.8953 22.0806 4.8728C21.3606 4.7878 20.6206 4.8453 19.9206 5.0253C18.4481 5.4078 17.1581 6.36779 16.3581 7.66032C15.5881 8.90283 15.3206 10.4053 15.5705 11.8428C15.618 12.1103 15.683 12.3753 15.768 12.6328L13.8181 14.5828C13.343 15.0553 12.8705 15.5303 12.3981 16.0028L6.3958 22.005C5.53829 22.8726 5.35081 24.2476 5.98829 25.3C6.61079 26.33 7.88329 26.8376 9.04077 26.5026C9.56827 26.3501 9.98578 26.0326 10.3658 25.6525L12.5833 23.435C13.5957 22.4226 14.6058 21.4125 15.6183 20.4C16.1208 19.8975 16.6208 19.3975 17.1233 18.895C17.8683 18.15 18.6133 17.405 19.3583 16.66L19.5808 16.4375C21.1758 16.96 22.9683 16.7725 24.421 15.925C24.8635 15.6675 25.2735 15.3475 25.636 14.9875C26.7036 13.9125 27.331 12.465 27.376 10.95C27.3785 10.5775 27.3485 10.205 27.291 9.83498L27.2905 9.83535ZM8.83064 24.4155C8.81564 24.438 8.80064 24.458 8.78063 24.473C8.75813 24.498 8.73313 24.518 8.70814 24.533C8.41314 24.7505 7.99815 24.7455 7.72564 24.473C7.43814 24.1855 7.44064 23.7055 7.72564 23.418C8.01065 23.1305 8.49566 23.1305 8.78064 23.418C9.05564 23.698 9.05563 24.118 8.83064 24.4155Z" fill="black"/>
<path d="M13.6716 13.2826C13.3091 13.6451 12.9491 14.0051 12.5866 14.3676C12.4441 14.5101 12.1991 14.5101 12.0566 14.3676C11.9266 14.2376 11.7941 14.1076 11.6641 13.9751C11.1016 13.4126 10.5391 12.8501 9.97662 12.2876C9.65913 11.9701 9.33914 11.6501 9.02161 11.3326C8.69661 11.3151 8.3716 11.3001 8.0441 11.2826C7.8466 11.2726 7.6716 11.2701 7.54408 11.0826C7.50158 11.0201 7.46158 10.9551 7.42158 10.8901C7.22408 10.5801 7.02408 10.2676 6.82656 9.9576C6.48906 9.42759 6.15154 8.89757 5.81156 8.36761C5.72406 8.22761 5.75656 8.02761 5.87156 7.91261C6.32157 7.46261 6.76907 7.0151 7.21908 6.56509C7.33408 6.45009 7.53408 6.41759 7.67408 6.50759L8.31157 6.91509C8.96405 7.33259 9.61657 7.74759 10.2691 8.1651C10.3616 8.2251 10.4691 8.2801 10.5266 8.3776C10.6041 8.5101 10.5866 8.7276 10.5941 8.87762C10.6091 9.15762 10.6216 9.43762 10.6366 9.71762C10.7341 9.81512 10.8291 9.91012 10.9266 10.0076C11.4891 10.5701 12.0515 11.1326 12.6141 11.6951C12.9666 12.0476 13.3191 12.4001 13.6716 12.7526C13.8141 12.8951 13.8141 13.1401 13.6716 13.2826L13.6716 13.2826Z" fill="#FF9C1C"/>
</svg>
